<?xml version="1.0" encoding="UTF-8" standalone="no"?>
<svg
   xmlns:dc="http://purl.org/dc/elements/1.1/"
   xmlns:cc="http://creativecommons.org/ns#"
   xmlns:rdf="http://www.w3.org/1999/02/22-rdf-syntax-ns#"
   xmlns:svg="http://www.w3.org/2000/svg"
   xmlns="http://www.w3.org/2000/svg"
   xmlns:sodipodi="http://sodipodi.sourceforge.net/DTD/sodipodi-0.dtd"
   xmlns:inkscape="http://www.inkscape.org/namespaces/inkscape"
   width="1000"
   height="1000"
   id="svg4752"
   version="1.1"
   inkscape:version="0.48.5 r10040"
   sodipodi:docname="Graduation Cap.png">
  <metadata
     id="metadata4811">
    <rdf:RDF>
      <cc:Work
         rdf:about="">
        <dc:format>image/svg+xml</dc:format>
        <dc:type
           rdf:resource="http://purl.org/dc/dcmitype/StillImage" />
        <dc:title></dc:title>
      </cc:Work>
    </rdf:RDF>
  </metadata>
  <sodipodi:namedview
     pagecolor="#ffffff"
     bordercolor="#666666"
     borderopacity="1"
     objecttolerance="10"
     gridtolerance="10"
     guidetolerance="10"
     inkscape:pageopacity="0"
     inkscape:pageshadow="2"
     inkscape:window-width="1436"
     inkscape:window-height="855"
     id="namedview4809"
     showgrid="false"
     inkscape:zoom="0.44851479"
     inkscape:cx="366.53844"
     inkscape:cy="533.83181"
     inkscape:window-x="4"
     inkscape:window-y="0"
     inkscape:window-maximized="1"
     inkscape:current-layer="layer1">
    <inkscape:grid
       type="xygrid"
       id="grid3818" />
  </sodipodi:namedview>
  <desc
     id="desc4754">/Users/Bryce/Dropbox/Graduation Cap.DXF - scale = 35.000000</desc>
  <defs
     id="defs4756">
    <marker
       id="DistanceX"
       orient="auto"
       refX="0"
       refY="0"
       style="overflow:visible">
      <path
         d="M 3,-3 -3,3 M 0,-5 0,5"
         style="stroke:#000000;stroke-width:0.5"
         id="path4759"
         inkscape:connector-curvature="0" />
    </marker>
    <pattern
       height="8"
       id="Hatch"
       patternUnits="userSpaceOnUse"
       width="8"
       x="0"
       y="0">
      <path
         d="M8 4 l-4,4"
         linecap="square"
         stroke="#000000"
         stroke-width="0.25"
         id="path4762" />
      <path
         d="M6 2 l-4,4"
         linecap="square"
         stroke="#000000"
         stroke-width="0.25"
         id="path4764" />
      <path
         d="M4 0 l-4,4"
         linecap="square"
         stroke="#000000"
         stroke-width="0.25"
         id="path4766" />
    </pattern>
    <symbol
       id="*Model_Space" />
    <symbol
       id="*Paper_Space" />
    <symbol
       id="*Paper_Space0" />
  </defs>
  <g
     inkscape:groupmode="layer"
     id="layer1"
     inkscape:label="bg">
    <rect
       style="fill:#123a59;fill-opacity:1;stroke:none;stroke-width:10;stroke-linecap:butt;stroke-linejoin:round;stroke-miterlimit:4;stroke-opacity:1;stroke-dasharray:none;stroke-dashoffset:0"
       id="rect3820"
       width="1000"
       height="1000"
       x="0"
       y="0" />
  </g>
  <g
     inkscape:groupmode="layer"
     inkscape:label="path"
     id="g4771"
     transform="translate(0,-52.362183)">
    <path
       id="path4799"
       style="fill:none;stroke:#f2f2f2;stroke-width:7.95656252;stroke-linecap:round;stroke-miterlimit:4;stroke-opacity:1;stroke-dasharray:none"
       d="m 513.9546,540.26775 134.05626,67.02814 0,138.14346 m -12.33424,0 24.66848,0 12.33423,74.00543 -49.33695,0 z m 37.00271,-150.4777 0,74.00543 c -13.32411,18.4742 -37.34568,34.70827 -67.93902,45.91398 -30.59333,11.2057 -67.62695,17.3349 -104.74031,17.3349 -37.11337,0 -74.14699,-6.1292 -104.74032,-17.3349 -30.59333,-11.20571 -54.61491,-27.43978 -67.93902,-45.91398 l 0,-74.00543 M 203.97828,533.29046 500,385.27959 796.02172,533.29046 500,681.30132 z m 315.7565,0 c 0,-2.58327 -2.12688,-5.15065 -5.78018,-6.9773 -3.65331,-1.82665 -8.78805,-2.89009 -13.9546,-2.89009 -5.16656,0 -10.30129,1.06344 -13.95461,2.89009 -3.6533,1.82665 -5.78018,4.39403 -5.78018,6.9773 0,2.58327 2.12688,5.15065 5.78018,6.9773 3.65332,1.82665 8.78805,2.89009 13.95461,2.89009 5.16655,0 10.30129,-1.06344 13.9546,-2.89009 3.6533,-1.82665 5.78018,-4.39403 5.78018,-6.9773 z"
       inkscape:connector-curvature="0"
       sodipodi:nodetypes="ccccccccccssscccccccsssssssss" />
  </g>
</svg>
